<?xml version="1.0" standalone="no"?>
<!DOCTYPE svg PUBLIC "-//W3C//DTD SVG 20010904//EN"
 "http://www.w3.org/TR/2001/REC-SVG-20010904/DTD/svg10.dtd">
<svg version="1.0" xmlns="http://www.w3.org/2000/svg"
 width="128.000000pt" height="128.000000pt" viewBox="0 0 128.000000 128.000000"
 preserveAspectRatio="xMidYMid meet">
<metadata>
Created by potrace 1.14, written by Peter Selinger 2001-2017
</metadata>
<g transform="translate(0.000000,128.000000) scale(0.100000,-0.100000)"
fill="#000000" stroke="none">
<path d="M580 1125 c0 -2 6 -8 13 -14 10 -8 14 -7 14 2 0 8 -6 14 -14 14 -7 0
-13 -1 -13 -2z"/>
<path d="M695 1091 c-3 -5 -2 -12 3 -15 5 -3 9 1 9 9 0 17 -3 19 -12 6z"/>
<path d="M585 1079 c-4 -6 -5 -12 -2 -15 2 -3 7 2 10 11 7 17 1 20 -8 4z"/>
<path d="M621 1076 c-9 -11 -9 -16 1 -22 7 -4 10 -4 6 1 -4 4 -3 14 3 22 6 7
9 13 6 13 -2 0 -10 -6 -16 -14z"/>
<path d="M476 1062 c-3 -5 1 -9 9 -9 8 0 12 4 9 9 -3 4 -7 8 -9 8 -2 0 -6 -4
-9 -8z"/>
<path d="M540 1060 c8 -5 20 -10 25 -10 6 0 3 5 -5 10 -8 5 -19 10 -25 10 -5
0 -3 -5 5 -10z"/>
<path d="M765 1059 c-4 -6 -14 -8 -22 -5 -8 3 -12 2 -8 -3 3 -5 -1 -12 -7 -14
-8 -4 -9 -6 -2 -6 7 -1 22 8 35 19 13 10 21 19 17 20 -4 0 -10 -5 -13 -11z"/>
<path d="M795 1060 c-3 -5 -3 -10 2 -10 4 0 1 -5 -7 -11 -12 -8 -11 -9 5 -7
13 2 19 -2 17 -12 -2 -8 0 -11 4 -7 13 12 13 37 1 34 -7 -1 -11 4 -9 11 3 15
-4 16 -13 2z"/>
<path d="M636 1045 c-9 -26 -7 -32 5 -12 6 10 9 21 6 23 -2 3 -7 -2 -11 -11z"/>
<path d="M519 1033 c-8 -9 -9 -14 -4 -11 6 4 17 -3 24 -14 11 -18 11 -20 -3
-15 -10 4 -13 1 -10 -7 3 -7 -2 -13 -10 -13 -9 0 -14 8 -13 21 1 13 -4 21 -16
22 -12 1 -13 0 -2 -3 21 -6 19 -25 -2 -21 -11 2 -22 -6 -28 -19 -5 -13 -13
-23 -18 -23 -4 0 -5 5 -1 12 5 7 3 8 -6 3 -10 -6 -10 -10 3 -20 14 -10 14 -12
-3 -23 -16 -9 -19 -8 -18 6 0 9 -3 26 -7 36 -6 14 -5 17 3 12 16 -10 28 22 14
36 -8 8 -9 5 -5 -10 4 -17 1 -21 -16 -17 -20 4 -20 2 -6 -25 13 -25 13 -29 -2
-41 -14 -12 -15 -11 -8 11 6 19 5 22 -5 14 -7 -7 -9 -21 -5 -34 5 -16 9 -19
15 -10 4 7 12 10 18 6 6 -3 13 -2 17 4 3 5 12 10 18 10 7 0 4 -7 -6 -14 -10
-8 -18 -17 -18 -20 2 -16 0 -18 -12 -7 -8 6 -17 8 -21 4 -3 -4 -16 -7 -28 -8
-20 -2 -20 -1 -3 12 11 7 14 13 8 13 -7 0 -18 -6 -25 -12 -17 -16 -42 -22 -33
-8 3 5 1 10 -4 10 -6 0 -11 -5 -11 -11 0 -8 -6 -7 -17 2 -11 10 -14 10 -9 2 4
-7 2 -13 -3 -13 -6 0 -11 5 -11 12 0 6 -3 9 -6 5 -4 -3 -6 -56 -5 -117 2 -85
-1 -110 -11 -110 -9 0 -9 -3 2 -10 13 -9 13 -11 0 -20 -10 -6 -11 -10 -2 -10
6 0 12 -7 12 -16 0 -8 11 -30 25 -48 25 -33 32 -52 16 -42 -5 3 -14 0 -20 -8
-8 -10 -8 -16 3 -26 9 -6 19 -9 24 -6 5 3 16 -4 25 -15 19 -21 22 -33 7 -24
-5 3 -10 1 -10 -5 0 -7 7 -10 15 -7 8 4 17 2 20 -3 4 -6 1 -10 -5 -10 -6 0 -8
-11 -6 -25 5 -29 -1 -32 -20 -8 -13 17 -14 17 -7 -1 4 -13 3 -17 -4 -13 -13 8
-11 -18 1 -30 4 -4 6 -1 4 7 -2 8 5 14 17 15 11 0 19 6 17 13 -1 6 2 12 7 12
14 0 25 -21 15 -29 -5 -3 -10 -13 -12 -21 -1 -10 2 -9 13 4 20 26 19 33 -4 48
-16 10 -17 15 -8 26 14 18 18 42 6 42 -5 0 -9 -6 -9 -12 0 -7 -10 2 -22 19
-13 18 -27 32 -33 32 -23 -3 -38 1 -31 8 14 14 39 11 59 -7 11 -11 25 -17 30
-13 6 4 7 1 2 -7 -6 -10 -4 -12 8 -7 8 3 20 0 26 -7 6 -7 24 -12 41 -11 16 1
30 -2 30 -7 0 -4 -7 -8 -15 -8 -8 0 -15 -5 -15 -11 0 -5 5 -7 10 -4 6 4 9 1 8
-6 -2 -6 3 -14 11 -17 8 -2 11 0 8 5 -8 13 10 39 20 29 4 -5 2 -11 -6 -14 -10
-3 -7 -9 10 -19 l24 -14 -23 6 c-21 6 -22 5 -10 -14 8 -13 15 -16 19 -9 4 6
15 8 25 3 11 -4 29 -9 42 -11 18 -2 21 0 13 10 -13 15 -4 26 18 25 13 0 12 -2
-2 -8 -17 -6 -17 -8 -3 -20 11 -9 16 -10 16 -2 0 6 5 11 12 11 9 0 9 -3 0 -12
-21 -21 -13 -29 13 -12 22 14 38 43 17 30 -4 -2 -14 0 -22 5 -11 7 -9 8 8 6
28 -4 43 -24 34 -46 -5 -14 -3 -14 11 -3 9 8 21 11 27 7 5 -3 10 -2 10 4 0 5
-5 11 -12 13 -8 3 -6 7 5 11 9 3 16 3 16 -1 -3 -20 3 -28 21 -29 11 -1 18 3
14 8 -7 13 25 51 37 43 5 -3 9 -1 9 5 0 5 -5 12 -10 14 -6 3 -5 4 2 3 7 -2 12
-12 11 -24 -2 -13 3 -19 12 -18 18 3 32 16 17 16 -7 0 -12 6 -12 13 0 18 35
49 44 40 4 -4 10 -3 14 3 12 16 60 44 78 44 10 0 14 -3 10 -7 -7 -8 -11 -9
-37 -12 -5 0 -7 -5 -4 -11 4 -6 -1 -7 -12 -4 -15 5 -16 4 -3 -6 13 -10 13 -11
-1 -7 -9 3 -16 -1 -16 -8 0 -7 7 -11 16 -8 14 4 14 3 1 -5 -8 -6 -18 -8 -24
-5 -5 4 -6 1 -1 -7 6 -9 4 -11 -5 -5 -8 5 -11 4 -6 -3 4 -7 -1 -10 -13 -7 -19
3 -22 -9 -8 -32 5 -8 4 -13 -2 -13 -6 0 -11 6 -11 13 0 8 -4 7 -10 -3 -8 -12
-10 -12 -10 -1 0 10 -3 11 -13 2 -8 -6 -18 -7 -22 -3 -5 4 -5 0 -1 -8 4 -8 0
-6 -8 4 -9 11 -16 15 -16 10 0 -6 6 -16 13 -23 10 -11 9 -12 -3 -6 -13 8 -13
7 0 -10 8 -10 14 -20 13 -22 -2 -1 -3 -8 -3 -15 0 -7 6 -4 13 5 18 24 56 12
51 -16 -4 -21 -4 -21 5 -2 10 24 5 35 -16 35 -11 0 -7 6 11 21 21 17 30 18 41
9 8 -7 20 -10 27 -7 8 4 7 6 -4 6 -14 1 -16 5 -8 26 8 20 7 23 -8 18 -15 -6
-15 -5 -3 11 14 16 16 16 27 2 6 -9 15 -16 19 -16 4 0 3 6 -3 13 -25 30 14 80
57 72 12 -2 19 0 16 6 -4 5 -10 7 -15 4 -11 -7 -21 21 -14 40 4 8 10 15 16 15
5 0 7 4 3 9 -3 5 -1 12 5 16 6 4 7 11 4 17 -5 7 -1 9 9 5 11 -4 14 -2 10 8 -3
8 -10 12 -17 8 -6 -4 -4 2 4 13 22 30 24 30 16 9 -6 -16 -5 -17 5 -8 10 10 9
15 -1 28 -10 12 -10 15 0 15 8 0 10 3 7 7 -4 3 -1 13 6 21 10 13 9 14 -2 8
-11 -7 -13 0 -9 33 2 22 1 41 -2 41 -3 0 -6 9 -6 20 0 11 4 20 9 20 5 0 5 6
-1 13 -5 6 -8 22 -6 35 3 14 -1 22 -11 22 -24 0 -29 2 -43 19 -11 14 -12 14
-7 0 4 -10 0 -16 -9 -16 -8 0 -13 4 -10 9 8 12 -10 10 -24 -4 -9 -9 -12 -9
-12 -1 0 7 5 15 10 18 6 3 10 12 10 18 0 8 -4 7 -9 -2 -5 -8 -17 -16 -27 -17
-9 -2 -20 -8 -24 -14 -6 -9 -9 -9 -13 1 -4 12 -7 11 -16 -1 -8 -11 -11 -12
-11 -2 0 7 -5 10 -12 6 -6 -4 -8 -3 -4 4 3 6 2 13 -4 17 -5 3 -10 2 -10 -3 0
-6 -7 -13 -16 -16 -8 -3 -12 -2 -9 3 3 5 1 12 -5 16 -5 3 -10 0 -11 -7 0 -7
-5 -4 -10 7 -11 23 -49 50 -49 36 0 -6 8 -15 18 -20 9 -6 12 -11 6 -11 -5 0
-15 5 -22 12 -9 9 -12 9 -12 0 0 -6 8 -16 18 -21 9 -6 13 -10 7 -11 -24 0 -37
18 -30 41 7 21 6 22 -8 10 -9 -7 -14 -18 -10 -24 3 -6 1 -7 -6 -3 -8 5 -9 12
-2 20 6 7 6 17 1 26 -6 8 -10 13 -11 10 -9 -53 -13 -57 -34 -40 -8 7 -12 17
-8 24 4 7 2 8 -5 1 -14 -13 -4 -57 11 -48 6 3 7 1 3 -5 -11 -18 -16 -15 -27
18 -6 16 -15 27 -20 24 -5 -3 -5 -13 1 -25 10 -18 6 -23 -14 -20 -5 1 -5 -6
-2 -16 6 -14 5 -15 -5 -6 -10 10 -9 16 1 28 20 24 4 29 -21 6 -18 -17 -25 -18
-38 -8 -12 10 -14 9 -8 -7 7 -17 6 -17 -10 -5 -15 12 -16 12 -10 -5 6 -16 5
-17 -8 -6 -12 10 -15 10 -15 0 0 -8 -3 -11 -6 -8 -3 4 0 17 7 30 7 12 12 27
11 31 -1 5 2 6 8 2 8 -5 7 -11 -1 -21 -10 -12 -9 -13 5 -8 19 7 20 16 5 31
-14 14 8 13 30 -1 10 -7 12 -6 6 4 -6 9 -4 11 5 5 9 -6 11 -4 5 5 -6 9 -4 11
5 5 9 -6 11 -4 5 5 -6 9 -4 11 5 5 8 -5 11 -4 7 2 -3 5 0 10 8 10 8 0 11 -5 8
-11 -4 -6 2 -4 12 4 10 8 16 10 12 3 -9 -14 21 -10 52 7 22 11 28 30 10 30 -5
0 -7 -4 -4 -10 3 -5 -1 -10 -9 -10 -9 0 -15 3 -14 8 4 14 -13 52 -24 52 -6 0
-6 -6 2 -15 7 -9 9 -19 5 -23 -4 -4 -10 -1 -12 6 -4 10 -9 9 -24 -4 -21 -19
-26 -6 -6 16 10 12 9 12 -5 1 -16 -12 -22 -9 -19 12 2 12 -6 8 -20 -10z m96
-43 c-2 -8 -4 -17 -4 -19 -1 -2 -7 1 -13 6 -7 6 -21 9 -31 8 -14 -3 -16 0 -7
10 15 18 58 14 55 -5z m-102 -25 c4 3 5 2 2 -2 -9 -12 -35 -12 -35 0 0 6 -7 2
-15 -9 -14 -18 -14 -17 -4 9 11 25 14 26 29 12 9 -8 20 -13 23 -10z m153 -79
c1 -9 -5 -12 -20 -8 -18 5 -18 7 -3 10 10 2 14 8 11 15 -4 7 -3 8 1 4 5 -4 10
-14 11 -21z m-133 -11 c-3 -9 -8 -14 -10 -11 -3 3 -2 9 2 15 9 16 15 13 8 -4z
m-222 -57 c1 -7 1 -17 0 -21 -1 -5 4 -5 10 -1 8 4 9 3 5 -4 -5 -8 -1 -10 10
-5 16 6 15 7 -2 20 -10 7 -16 14 -13 14 25 7 61 7 51 0 -18 -11 -19 -15 -5
-33 15 -18 7 -29 -15 -21 -10 4 -13 2 -8 -5 4 -6 -2 -20 -14 -32 -11 -11 -15
-20 -9 -20 6 0 7 -5 2 -12 -4 -7 -8 -33 -8 -58 0 -33 5 -49 20 -62 11 -9 16
-20 12 -25 -5 -4 -18 3 -29 17 -11 14 -24 24 -27 23 -4 -1 -7 16 -7 38 0 26 4
39 13 39 8 0 11 5 8 10 -4 6 -10 8 -14 5 -5 -2 -7 14 -6 38 3 58 4 59 15 52
12 -8 13 -3 0 29 -6 17 -6 26 0 26 6 0 11 -6 11 -12z m89 -3 c-6 -8 -8 -20 -4
-27 5 -10 4 -10 -5 -2 -13 12 -5 44 11 44 6 0 5 -6 -2 -15z m58 -3 c15 12 16
11 3 -5 -10 -13 -17 -15 -27 -6 -11 9 -14 8 -14 -1 0 -8 -2 -11 -5 -8 -3 3 -2
13 1 23 6 16 8 16 16 1 8 -14 12 -15 26 -4z m475 6 c-2 -5 0 -8 6 -8 5 0 8 -9
6 -20 -3 -14 0 -18 8 -14 7 4 9 3 4 -1 -4 -5 -18 -10 -30 -11 -12 -2 -16 0 -9
2 17 8 5 24 -13 18 -7 -3 -18 3 -24 15 -15 28 -15 28 23 27 19 -1 32 -4 29 -8z
m33 3 c-3 -5 1 -12 9 -15 13 -5 14 -10 5 -28 -10 -21 -10 -21 3 -5 8 9 18 17
22 17 4 0 3 -6 -3 -12 -5 -7 -9 -30 -8 -50 2 -26 -2 -38 -12 -38 -7 0 -10 -5
-7 -10 4 -6 11 -8 16 -5 5 3 6 -1 3 -9 -3 -9 -10 -16 -15 -16 -5 0 -9 -5 -9
-11 0 -5 5 -7 12 -3 18 11 -3 -19 -24 -34 -23 -17 -23 -33 0 -26 14 5 14 4 2
-4 -8 -6 -18 -8 -22 -6 -4 3 -8 0 -8 -5 0 -6 -5 -11 -10 -11 -6 0 -4 10 4 23
8 12 15 27 16 32 0 6 5 10 12 10 12 0 19 51 9 70 -9 17 -10 35 -1 30 5 -3 11
-1 15 5 3 5 -2 10 -13 10 -29 0 -34 12 -12 27 12 8 17 19 13 26 -12 20 -14 47
-2 47 5 0 8 -4 5 -9z m41 -17 c-9 -9 -28 6 -21 18 4 6 10 6 17 -1 6 -6 8 -13
4 -17z m-147 1 c0 -12 -19 -12 -23 0 -4 9 -1 12 9 8 7 -3 14 -7 14 -8z m36
-275 c0 -12 -4 -16 -9 -11 -5 5 -6 14 -3 20 10 15 12 14 12 -9z m-515 -7 c13
-17 13 -17 -6 -3 -11 8 -22 16 -24 17 -2 2 0 3 6 3 6 0 17 -8 24 -17z m549 13
c0 -3 -4 -8 -10 -11 -5 -3 -10 -1 -10 4 0 6 5 11 10 11 6 0 10 -2 10 -4z
m-496 -14 c3 -5 -1 -9 -9 -9 -8 0 -12 4 -9 9 3 4 7 8 9 8 2 0 6 -4 9 -8z m120
-80 c3 -5 -1 -9 -9 -9 -8 0 -12 4 -9 9 3 4 7 8 9 8 2 0 6 -4 9 -8z m236 -2 c0
-5 -5 -10 -11 -10 -5 0 -7 5 -4 10 3 6 8 10 11 10 2 0 4 -4 4 -10z m40 0 c0
-5 -5 -10 -11 -10 -5 0 -7 5 -4 10 3 6 8 10 11 10 2 0 4 -4 4 -10z m-282 -45
c-3 -3 -9 2 -12 12 -6 14 -5 15 5 6 7 -7 10 -15 7 -18z m159 10 c0 -8 -4 -12
-9 -9 -5 3 -6 10 -3 15 9 13 12 11 12 -6z m51 -25 c-7 -10 -14 -17 -17 -15 -2
3 2 12 10 21 12 15 11 16 -11 11 -14 -4 -19 -4 -12 -1 6 3 9 10 6 16 -4 6 2 5
15 -1 18 -10 19 -15 9 -31z m-233 19 c11 -16 1 -19 -13 -3 -7 8 -8 14 -3 14 5
0 13 -5 16 -11z m165 -24 c0 -5 -5 -3 -10 5 -5 8 -10 20 -10 25 0 6 5 3 10 -5
5 -8 10 -19 10 -25z m210 -17 c0 -5 -9 -4 -20 2 -11 6 -18 15 -14 21 6 11 34
-7 34 -23z m-50 -18 c0 -3 -13 -12 -29 -21 -28 -16 -35 -9 -18 18 7 11 47 14
47 3z"/>
<path d="M317 765 c-8 -8 -18 -11 -23 -7 -5 4 -2 -1 5 -10 9 -12 10 -18 2 -18
-15 0 -14 -27 1 -36 8 -5 9 -2 5 9 -4 10 0 20 9 25 8 4 16 18 19 30 5 26 2 27
-18 7z"/>
<path d="M296 652 c-5 -9 -2 -39 5 -46 3 -3 5 8 4 24 0 32 -1 35 -9 22z"/>
<path d="M887 803 c6 -16 23 -17 23 -1 0 6 7 3 16 -8 15 -19 15 -19 6 0 -11
22 -53 31 -45 9z"/>
<path d="M955 749 c-3 -4 2 -6 10 -5 21 3 28 13 10 13 -9 0 -18 -4 -20 -8z"/>
<path d="M969 703 c-13 -16 -12 -17 4 -4 9 7 17 15 17 17 0 8 -8 3 -21 -13z"/>
<path d="M666 1034 c-11 -8 -16 -14 -10 -14 13 0 39 18 34 24 -3 2 -14 -2 -24
-10z"/>
<path d="M662 990 c-23 -23 -40 -46 -36 -51 3 -5 10 -7 15 -3 5 3 7 9 4 14 -3
4 2 13 9 19 11 10 17 8 25 -6 8 -14 10 -15 11 -3 0 13 1 13 10 0 6 -10 10 -11
10 -2 0 6 5 12 10 12 6 0 9 -3 8 -7 -2 -5 2 -9 7 -11 6 -2 16 -13 23 -25 9
-15 12 -16 8 -4 -3 11 -2 15 4 12 9 -6 15 8 11 29 -1 5 4 6 12 3 10 -4 14 2
13 16 -1 11 -7 22 -14 23 -7 1 -8 0 -2 -3 5 -2 10 -9 10 -14 0 -6 -5 -7 -10
-4 -6 4 -17 1 -25 -5 -18 -15 -20 1 -2 19 10 11 10 13 0 7 -7 -4 -13 -3 -13 3
0 5 5 12 10 14 6 3 5 4 -2 3 -7 -2 -12 -11 -12 -20 1 -9 -3 -15 -10 -13 -6 3
-10 10 -8 16 1 7 -2 10 -7 7 -5 -4 -11 -1 -13 5 -2 6 -23 -8 -46 -31z m68 -5
c16 -17 27 -22 35 -15 8 7 12 6 12 -3 0 -7 -11 -13 -23 -13 -12 0 -22 5 -21
11 1 5 -9 11 -23 11 -41 2 -43 3 -30 19 17 20 23 19 50 -10z"/>
<path d="M686 992 c-3 -5 1 -9 9 -9 8 0 12 4 9 9 -3 4 -7 8 -9 8 -2 0 -6 -4
-9 -8z"/>
<path d="M836 1012 c-2 -4 -1 -14 4 -22 7 -11 9 -9 7 8 -1 24 -3 26 -11 14z"/>
<path d="M866 998 c3 -5 10 -6 15 -3 13 9 11 12 -6 12 -8 0 -12 -4 -9 -9z"/>
<path d="M335 980 c-3 -5 -1 -10 4 -10 6 0 11 5 11 10 0 6 -2 10 -4 10 -3 0
-8 -4 -11 -10z"/>
<path d="M822 979 c2 -9 -8 -25 -21 -36 -14 -12 -21 -25 -17 -32 8 -12 26 -6
26 10 0 6 -5 7 -12 3 -7 -4 -8 -3 -4 4 4 6 13 9 21 6 8 -4 13 -10 10 -14 -3
-5 0 -12 7 -16 17 -11 48 -12 42 -2 -3 4 2 8 10 8 9 0 16 6 16 13 0 8 4 7 10
-3 6 -9 10 -10 10 -3 0 16 -17 26 -24 14 -4 -5 -18 -8 -31 -7 -29 3 -45 15
-24 17 8 1 21 3 29 4 8 1 21 3 28 4 6 0 12 6 12 13 0 6 -3 8 -7 5 -3 -4 -13
-1 -21 5 -11 10 -17 9 -27 -5 -12 -17 -31 -25 -21 -9 2 4 0 14 -5 22 -8 13 -9
12 -7 -1z m63 -19 c3 -5 2 -10 -4 -10 -5 0 -13 5 -16 10 -3 6 -2 10 4 10 5 0
13 -4 16 -10z m-15 -45 c0 -7 -30 -13 -34 -7 -3 4 4 9 15 9 10 1 19 0 19 -2z"/>
<path d="M955 970 c-4 -6 -10 -8 -15 -5 -5 3 -11 1 -14 -4 -8 -13 22 -7 36 7
7 7 9 12 6 12 -4 0 -10 -5 -13 -10z"/>
<path d="M359 953 c-13 -16 -12 -17 4 -4 9 7 17 15 17 17 0 8 -8 3 -21 -13z"/>
<path d="M535 938 c-14 -17 -19 -17 -32 -6 -15 12 -15 11 -4 -10 l13 -24 26
23 c15 13 31 26 35 30 4 3 1 6 -7 6 -8 0 -22 -9 -31 -19z"/>
<path d="M966 918 c3 -4 9 -8 15 -8 5 0 9 4 9 8 0 5 -7 9 -15 9 -8 0 -12 -4
-9 -9z"/>
<path d="M1073 795 c0 -8 4 -12 9 -9 5 3 6 10 3 15 -9 13 -12 11 -12 -6z"/>
<path d="M215 769 c-4 -6 -14 -8 -22 -5 -8 3 -11 2 -8 -3 8 -14 42 -9 42 6 0
16 -4 16 -12 2z"/>
<path d="M215 730 c-4 -6 -11 -7 -17 -4 -7 4 -8 2 -4 -5 6 -9 11 -9 22 0 14
11 18 19 10 19 -3 0 -8 -5 -11 -10z"/>
<path d="M1053 725 c-3 -9 -3 -18 -1 -21 3 -3 8 4 11 16 6 23 -1 27 -10 5z"/>
<path d="M195 670 c-4 -6 -12 -7 -18 -4 -7 4 -8 3 -4 -1 13 -15 34 -14 34 1 0
17 -4 18 -12 4z"/>
<path d="M1080 580 c-12 -7 -10 -9 7 -7 12 0 19 5 17 9 -6 10 -6 10 -24 -2z"/>
<path d="M250 550 c6 -11 13 -20 16 -20 2 0 0 9 -6 20 -6 11 -13 20 -16 20 -2
0 0 -9 6 -20z"/>
<path d="M1047 539 c7 -7 15 -10 18 -7 3 3 -2 9 -12 12 -14 6 -15 5 -6 -5z"/>
<path d="M204 522 c23 -26 23 -26 23 -7 0 8 -3 13 -5 10 -3 -3 -12 1 -21 7
-10 8 -9 4 3 -10z"/>
<path d="M1019 523 c-1 -5 -1 -12 0 -17 1 -5 -6 -5 -16 -2 -14 6 -15 4 -6 -5
13 -13 36 -2 27 13 -5 8 -1 9 10 5 10 -4 15 -3 11 3 -7 12 -24 13 -26 3z"/>
<path d="M1039 498 c-5 -18 -6 -38 -1 -34 7 8 12 36 6 36 -2 0 -4 -1 -5 -2z"/>
<path d="M320 476 c0 -2 8 -10 18 -17 15 -13 16 -12 3 4 -13 16 -21 21 -21 13z"/>
<path d="M253 458 c1 -7 -4 -12 -11 -10 -8 1 -11 -2 -7 -8 5 -8 11 -8 21 1 7
6 11 15 8 20 -8 13 -14 11 -11 -3z"/>
<path d="M282 440 c-7 -11 -8 -20 -3 -20 9 0 24 30 18 36 -1 2 -8 -6 -15 -16z"/>
<path d="M373 445 c0 -8 3 -15 7 -15 3 0 15 -7 26 -16 18 -15 18 -15 -3 -5
-29 15 -38 -2 -18 -33 10 -15 12 -26 6 -30 -6 -4 -7 -16 -2 -29 5 -12 11 -20
14 -17 3 3 12 -4 20 -14 11 -15 16 -16 22 -6 5 8 4 11 -2 7 -6 -4 -14 0 -17 9
-3 8 -10 13 -15 10 -9 -6 -23 29 -15 37 3 2 19 -9 36 -25 32 -30 32 -30 42 -9
5 12 14 21 19 21 6 0 7 -3 4 -7 -4 -3 -1 -13 6 -21 10 -13 9 -15 -8 -9 -19 7
-19 6 -2 -7 11 -8 25 -12 33 -9 10 4 12 0 8 -13 -4 -11 -4 -16 1 -12 4 4 15 2
24 -4 13 -10 14 -10 4 2 -21 24 -14 34 9 14 12 -10 18 -13 14 -6 -4 7 -1 12 8
12 19 0 21 -11 4 -28 -8 -8 -8 -12 -1 -12 13 0 25 28 18 40 -3 5 -1 11 5 15
10 6 14 -7 11 -34 -2 -7 2 -10 7 -7 6 3 12 3 15 -1 2 -5 2 -1 0 7 -3 8 -5 20
-6 25 -1 6 -6 13 -12 17 -6 5 -5 8 2 8 7 0 18 -10 24 -22 7 -13 18 -28 25 -36
11 -10 12 -6 8 24 -4 31 -2 35 10 25 8 -7 12 -19 9 -27 -3 -8 0 -14 7 -14 6 0
8 5 5 10 -6 9 8 14 28 11 5 -1 6 3 2 9 -3 5 -2 10 3 10 5 0 12 -8 14 -18 5
-19 38 -27 38 -9 0 5 -7 7 -15 3 -9 -3 -15 0 -15 9 0 8 -9 19 -20 25 -11 6
-20 16 -20 23 0 8 4 7 10 -3 5 -8 12 -11 16 -7 4 4 5 10 1 13 -10 11 -71 13
-84 3 -14 -12 -27 6 -17 23 4 7 -7 2 -24 -11 -24 -17 -33 -19 -37 -9 -3 7 -17
14 -30 14 -22 2 -25 -2 -20 -20 4 -15 2 -14 -10 7 -16 28 -30 34 -40 17 -7
-11 -35 -2 -32 10 1 4 -2 8 -6 8 -15 1 -48 52 -41 63 4 7 1 10 -7 7 -8 -3 -21
1 -30 8 -13 12 -16 12 -16 -1z m42 -51 c11 0 19 -5 18 -12 -3 -11 10 -16 30
-13 5 1 6 -3 3 -8 -4 -5 -2 -12 3 -16 12 -7 3 -35 -11 -35 -5 0 -6 5 -3 11 4
6 1 9 -8 7 -14 -3 -67 61 -67 80 0 4 4 2 8 -3 4 -6 16 -11 27 -11z m149 -85
c4 6 4 17 1 24 -4 6 0 4 8 -6 11 -14 16 -15 21 -5 3 7 3 3 0 -10 l-6 -23 33
20 c25 16 36 18 47 9 9 -8 16 -8 20 -1 11 16 38 12 50 -8 14 -22 -11 -35 -28
-14 -6 8 -18 11 -26 8 -11 -4 -12 -9 -3 -19 6 -8 8 -14 4 -14 -4 0 -15 10 -25
22 -18 22 -19 22 -38 4 -12 -10 -26 -15 -31 -11 -6 3 -11 1 -11 -6 0 -8 -4 -8
-12 -2 -7 6 -23 9 -35 8 -12 -1 -20 2 -17 6 2 4 0 10 -5 13 -8 5 -8 16 -1 46
0 3 11 -8 24 -24 15 -18 26 -24 30 -17z"/>
<path d="M412 371 c7 -9 13 -18 15 -20 1 -2 1 5 0 16 0 11 -7 20 -14 20 -10 0
-10 -4 -1 -16z"/>
<path d="M440 356 c0 -2 8 -10 18 -17 15 -13 16 -12 3 4 -13 16 -21 21 -21 13z"/>
<path d="M513 325 c0 -8 4 -12 9 -9 5 3 6 10 3 15 -9 13 -12 11 -12 -6z"/>
<path d="M707 309 c7 -7 15 -10 18 -7 3 3 -2 9 -12 12 -14 6 -15 5 -6 -5z"/>
<path d="M960 440 c-13 -8 -13 -10 2 -10 9 0 20 5 23 10 8 13 -5 13 -25 0z"/>
<path d="M1016 438 c3 -4 11 -5 19 -1 21 7 19 12 -4 10 -11 0 -18 -5 -15 -9z"/>
<path d="M850 420 c-6 -12 -5 -17 5 -17 8 0 22 8 30 17 13 14 12 16 -6 16 -11
0 -24 -8 -29 -16z"/>
<path d="M990 421 c0 -5 8 -15 18 -22 15 -12 16 -12 5 2 -7 9 -10 19 -6 22 3
4 1 7 -5 7 -7 0 -12 -4 -12 -9z"/>
<path d="M950 408 c0 -4 4 -8 9 -8 6 0 12 4 15 8 3 5 -1 9 -9 9 -8 0 -15 -4
-15 -9z"/>
<path d="M285 400 c-3 -6 1 -7 9 -4 18 7 21 14 7 14 -6 0 -13 -4 -16 -10z"/>
<path d="M786 381 c-3 -5 1 -11 9 -14 9 -4 12 -1 8 9 -6 16 -10 17 -17 5z"/>
<path d="M926 358 c3 -4 11 -5 19 -1 21 7 19 12 -4 10 -11 0 -18 -5 -15 -9z"/>
<path d="M945 340 c-3 -6 1 -7 9 -4 18 7 21 14 7 14 -6 0 -13 -4 -16 -10z"/>
<path d="M870 319 c0 -5 5 -7 10 -4 6 3 10 8 10 11 0 2 -4 4 -10 4 -5 0 -10
-5 -10 -11z"/>
<path d="M880 290 c-6 -11 -8 -20 -6 -20 3 0 10 9 16 20 6 11 8 20 6 20 -3 0
-10 -9 -16 -20z"/>
<path d="M355 280 c-3 -5 -1 -10 4 -10 6 0 11 5 11 10 0 6 -2 10 -4 10 -3 0
-8 -4 -11 -10z"/>
<path d="M816 275 c4 -8 8 -15 10 -15 2 0 4 7 4 15 0 8 -4 15 -10 15 -5 0 -7
-7 -4 -15z"/>
<path d="M461 270 c-9 -5 -4 -7 13 -7 29 0 32 2 13 10 -8 3 -20 2 -26 -3z"/>
<path d="M736 243 c-6 -14 -5 -15 5 -6 7 7 10 15 7 18 -3 3 -9 -2 -12 -12z"/>
<path d="M450 242 c0 -4 11 -8 25 -8 28 0 24 8 -5 13 -11 2 -20 -1 -20 -5z"/>
<path d="M793 225 c0 -8 4 -12 9 -9 5 3 6 10 3 15 -9 13 -12 11 -12 -6z"/>
<path d="M615 220 c-7 -11 22 -26 32 -16 4 3 -1 6 -11 6 -9 0 -14 5 -11 10 3
6 4 10 1 10 -3 0 -8 -5 -11 -10z"/>
<path d="M543 205 c17 -19 17 -19 35 0 16 18 16 18 0 6 -15 -11 -21 -11 -35 0
-17 12 -17 12 0 -6z"/>
<path d="M730 216 c0 -2 8 -10 18 -17 15 -13 16 -12 3 4 -13 16 -21 21 -21 13z"/>
<path d="M690 179 c0 -5 5 -7 10 -4 6 3 10 8 10 11 0 2 -4 4 -10 4 -5 0 -10
-5 -10 -11z"/>
</g>
</svg>
